<svg width="32" height="32" viewBox="0 0 32 32" fill="none" xmlns="http://www.w3.org/2000/svg">
<circle cx="16" cy="16" r="16" fill="#2D0303"/>
<path d="M14.646 15.774C12.707 16.17 10.179 16.091 8.41195 15.173C5.95795 13.91 6.87495 10.513 9.83495 10.191C12.089 9.96697 13.649 9.83697 15.485 10.405C16.32 10.661 17.415 10.974 16.84 13.686C16.649 14.753 15.77 15.59 14.646 15.774Z" stroke="white" stroke-width="2" stroke-linecap="round" stroke-linejoin="round"/>
<path d="M9.83997 10.132C9.92297 9.56797 10.054 9.01197 10.232 8.47097C10.688 7.53497 11.327 6.40297 14.217 6.01497C15.1734 5.98054 16.131 6.00726 17.084 6.09497C18.86 6.23497 19.727 7.32897 20.371 9.46297C20.71 10.62 20.831 11.805 21 13M21 13V24M21 13C21.991 13.163 23.105 13.383 24.069 13.67C24.324 13.8 24.589 13.945 24.603 14.175C24.867 17.609 25.173 21.623 24.881 24H21M21 24L8.29597 23.981C7.74397 21.595 8.03397 18.087 8.49997 15.5" stroke="white" stroke-width="2" stroke-linecap="round" stroke-linejoin="round"/>
</svg>
