<svg width="24" height="24" viewBox="0 0 24 24" fill="none" xmlns="http://www.w3.org/2000/svg">
<path d="M20.45 7.83002H17.65V10.64C17.65 10.7726 17.5973 10.8998 17.5035 10.9936C17.4098 11.0873 17.2826 11.14 17.15 11.14C17.0174 11.14 16.8902 11.0873 16.7964 10.9936C16.7027 10.8998 16.65 10.7726 16.65 10.64V7.83002H13.84C13.7074 7.83002 13.5802 7.77734 13.4864 7.68357C13.3927 7.5898 13.34 7.46263 13.34 7.33002C13.34 7.19741 13.3927 7.07023 13.4864 6.97647C13.5802 6.8827 13.7074 6.83002 13.84 6.83002H16.65V4.02002C16.65 3.88741 16.7027 3.76023 16.7964 3.66647C16.8902 3.5727 17.0174 3.52002 17.15 3.52002C17.2826 3.52002 17.4098 3.5727 17.5035 3.66647C17.5973 3.76023 17.65 3.88741 17.65 4.02002V6.83002H20.45C20.5826 6.83002 20.7098 6.8827 20.8035 6.97647C20.8973 7.07023 20.95 7.19741 20.95 7.33002C20.95 7.46263 20.8973 7.5898 20.8035 7.68357C20.7098 7.77734 20.5826 7.83002 20.45 7.83002ZM3.54498 7.83002C3.41237 7.83002 3.2852 7.77734 3.19143 7.68357C3.09766 7.5898 3.04498 7.46263 3.04498 7.33002C3.04498 7.19741 3.09766 7.07023 3.19143 6.97647C3.2852 6.8827 3.41237 6.83002 3.54498 6.83002H10.164C10.2966 6.83002 10.4238 6.8827 10.5175 6.97647C10.6113 7.07023 10.664 7.19741 10.664 7.33002C10.664 7.46263 10.6113 7.5898 10.5175 7.68357C10.4238 7.77734 10.2966 7.83002 10.164 7.83002H3.54498ZM13.836 16.05C13.7034 16.05 13.5762 15.9973 13.4824 15.9036C13.3887 15.8098 13.336 15.6826 13.336 15.55C13.336 15.4174 13.3887 15.2902 13.4824 15.1965C13.5762 15.1027 13.7034 15.05 13.836 15.05H20.455C20.5876 15.05 20.7148 15.1027 20.8085 15.1965C20.9023 15.2902 20.955 15.4174 20.955 15.55C20.955 15.6826 20.9023 15.8098 20.8085 15.9036C20.7148 15.9973 20.5876 16.05 20.455 16.05H13.836ZM13.836 20.191C13.7034 20.191 13.5762 20.1383 13.4824 20.0446C13.3887 19.9508 13.336 19.8236 13.336 19.691C13.336 19.5584 13.3887 19.4312 13.4824 19.3375C13.5762 19.2437 13.7034 19.191 13.836 19.191H20.455C20.5876 19.191 20.7148 19.2437 20.8085 19.3375C20.9023 19.4312 20.955 19.5584 20.955 19.691C20.955 19.8236 20.9023 19.9508 20.8085 20.0446C20.7148 20.1383 20.5876 20.191 20.455 20.191H13.836ZM9.54998 19.61C9.63127 19.7062 9.67323 19.8296 9.6675 19.9554C9.66177 20.0813 9.60875 20.2003 9.51906 20.2887C9.42936 20.3772 9.30959 20.4285 9.18369 20.4324C9.05779 20.4364 8.93504 20.3927 8.83998 20.31L6.85998 18.33C6.19998 18.98 5.52998 19.65 4.86998 20.31C4.77492 20.3927 4.65217 20.4364 4.52627 20.4324C4.40038 20.4285 4.28061 20.3772 4.19091 20.2887C4.10121 20.2003 4.0482 20.0813 4.04246 19.9554C4.03673 19.8296 4.0787 19.7062 4.15998 19.61L6.14998 17.62L4.15998 15.63C4.0787 15.5338 4.03673 15.4104 4.04246 15.2846C4.0482 15.1588 4.10121 15.0398 4.19091 14.9513C4.28061 14.8629 4.40038 14.8116 4.52627 14.8076C4.65217 14.8037 4.77492 14.8474 4.86998 14.93L5.44998 15.51L6.84998 16.91C7.51998 16.25 8.17998 15.59 8.83998 14.93C8.93504 14.8474 9.05779 14.8037 9.18369 14.8076C9.30959 14.8116 9.42936 14.8629 9.51906 14.9513C9.60875 15.0398 9.66177 15.1588 9.6675 15.2846C9.67323 15.4104 9.63127 15.5338 9.54998 15.63L7.55998 17.62L9.54998 19.61Z" fill="black"/>
</svg>
