<svg width="18" height="22" viewBox="0 0 18 22" fill="none" xmlns="http://www.w3.org/2000/svg">
<path d="M0 22V15C0 13.6167 0.487666 12.4373 1.463 11.462C2.43833 10.4867 3.61733 9.99934 5 10H6V2C6 1.45 6.196 0.979002 6.588 0.587002C6.98 0.195002 7.45067 -0.000664969 8 1.69779e-06H10C10.55 1.69779e-06 11.021 0.196002 11.413 0.588002C11.805 0.980002 12.0007 1.45067 12 2V10H13C14.3833 10 15.5627 10.4877 16.538 11.463C17.5133 12.4383 18.0007 13.6173 18 15V22H0ZM2 20H4V17C4 16.7167 4.096 16.479 4.288 16.287C4.48 16.095 4.71733 15.9993 5 16C5.28333 16 5.521 16.096 5.713 16.288C5.905 16.48 6.00067 16.7173 6 17V20H8V17C8 16.7167 8.096 16.479 8.288 16.287C8.48 16.095 8.71733 15.9993 9 16C9.28333 16 9.521 16.096 9.713 16.288C9.905 16.48 10.0007 16.7173 10 17V20H12V17C12 16.7167 12.096 16.479 12.288 16.287C12.48 16.095 12.7173 15.9993 13 16C13.2833 16 13.521 16.096 13.713 16.288C13.905 16.48 14.0007 16.7173 14 17V20H16V15C16 14.1667 15.7083 13.4583 15.125 12.875C14.5417 12.2917 13.8333 12 13 12H5C4.16667 12 3.45833 12.2917 2.875 12.875C2.29167 13.4583 2 14.1667 2 15V20ZM10 10V2H8V10H10Z" fill="black"/>
</svg>
