<svg width="24" height="24" viewBox="0 0 24 24" fill="none" xmlns="http://www.w3.org/2000/svg">
<path d="M15.87 2.66903L20.838 7.63703C21.0469 7.84596 21.2126 8.094 21.3257 8.36699C21.4388 8.63997 21.497 8.93255 21.497 9.22803C21.497 9.52351 21.4388 9.81609 21.3257 10.0891C21.2126 10.3621 21.0469 10.6101 20.838 10.819L12.156 19.499L18.254 19.5C18.4352 19.5 18.6103 19.5657 18.7469 19.6848C18.8835 19.8039 18.9723 19.9685 18.997 20.148L19.004 20.25C19.004 20.4313 18.9383 20.6064 18.8192 20.743C18.7001 20.8795 18.5355 20.9684 18.356 20.993L18.254 21L9.84397 21.001C9.52825 21.0188 9.21235 20.9696 8.91697 20.8567C8.62158 20.7438 8.35339 20.5698 8.12997 20.346L3.16097 15.377C2.95204 15.1681 2.7863 14.9201 2.67323 14.6471C2.56015 14.3741 2.50195 14.0815 2.50195 13.786C2.50195 13.4906 2.56015 13.198 2.67323 12.925C2.7863 12.652 2.95204 12.404 3.16097 12.195L12.688 2.66903C12.8969 2.46009 13.1449 2.29436 13.4179 2.18128C13.6909 2.06821 13.9835 2.01001 14.279 2.01001C14.5744 2.01001 14.867 2.06821 15.14 2.18128C15.413 2.29436 15.661 2.46009 15.87 2.66903ZM5.70797 11.768L4.22197 13.256C4.08152 13.3967 4.00263 13.5873 4.00263 13.786C4.00263 13.9848 4.08152 14.1754 4.22197 14.316L9.19097 19.285C9.33697 19.431 9.52897 19.505 9.72097 19.505L9.74997 19.5L9.78797 19.502C9.96303 19.4864 10.127 19.4096 10.251 19.285L11.737 17.798L5.70797 11.768ZM13.748 3.72903L6.76997 10.707L12.8 16.737L19.779 9.75903C19.8487 9.68938 19.904 9.60668 19.9417 9.51565C19.9794 9.42463 19.9988 9.32706 19.9988 9.22853C19.9988 9.13 19.9794 9.03243 19.9417 8.94141C19.904 8.85038 19.8487 8.76768 19.779 8.69803L14.81 3.72903C14.6693 3.58858 14.4787 3.50969 14.28 3.50969C14.0812 3.50969 13.8906 3.58858 13.75 3.72903H13.748Z" fill="black"/>
</svg>
