<svg width="24" height="24" viewBox="0 0 24 24" fill="none" xmlns="http://www.w3.org/2000/svg">
<path d="M17.25 6V18C17.25 18.1989 17.171 18.3897 17.0303 18.5303C16.8897 18.671 16.6989 18.75 16.5 18.75C16.3011 18.75 16.1103 18.671 15.9697 18.5303C15.829 18.3897 15.75 18.1989 15.75 18V6C15.75 5.80109 15.829 5.61032 15.9697 5.46967C16.1103 5.32902 16.3011 5.25 16.5 5.25C16.6989 5.25 16.8897 5.32902 17.0303 5.46967C17.171 5.61032 17.25 5.80109 17.25 6ZM21 5.25C20.8011 5.25 20.6103 5.32902 20.4697 5.46967C20.329 5.61032 20.25 5.80109 20.25 6V18C20.25 18.1989 20.329 18.3897 20.4697 18.5303C20.6103 18.671 20.8011 18.75 21 18.75C21.1989 18.75 21.3897 18.671 21.5303 18.5303C21.671 18.3897 21.75 18.1989 21.75 18V6C21.75 5.80109 21.671 5.61032 21.5303 5.46967C21.3897 5.32902 21.1989 5.25 21 5.25ZM12.8128 10.7494L4.545 5.48531C4.32002 5.34147 4.06054 5.26067 3.79367 5.25133C3.5268 5.242 3.26232 5.30449 3.02784 5.43226C2.79336 5.56004 2.59748 5.74842 2.46066 5.97774C2.32383 6.20706 2.25108 6.4689 2.25 6.73594V17.2641C2.25061 17.5297 2.32253 17.7904 2.45825 18.0188C2.59396 18.2472 2.78851 18.4349 3.02156 18.5625C3.25662 18.6916 3.52206 18.7551 3.79009 18.7463C4.05811 18.7376 4.31886 18.6569 4.545 18.5128L12.8128 13.2488C13.0235 13.1151 13.1969 12.9303 13.3171 12.7117C13.4373 12.4931 13.5003 12.2476 13.5003 11.9981C13.5003 11.7486 13.4373 11.5032 13.3171 11.2846C13.1969 11.0659 13.0235 10.8812 12.8128 10.7475V10.7494Z" fill="black"/>
</svg>
